<mxfile host="app.diagrams.net" modified="2023-09-24T13:56:32.889Z" agent="Mozilla/5.0 (Windows NT 10.0; Win64; x64) AppleWebKit/537.36 (KHTML, like Gecko) Chrome/116.0.0.0 Safari/537.36 OPR/102.0.0.0" etag="hj2HCkKr0KG2Cg7Ekh2M" version="21.8.2" type="device">
  <diagram name="Страница — 1" id="K8Wx1m4RjslwDhSuhDEU">
    <mxGraphModel dx="1432" dy="749" grid="1" gridSize="10" guides="1" tooltips="1" connect="1" arrows="1" fold="1" page="1" pageScale="1" pageWidth="1169" pageHeight="827" math="0" shadow="0">
      <root>
        <mxCell id="0" />
        <mxCell id="1" parent="0" />
        <mxCell id="4CcN1vGno0O6_xGIugly-1" value="" style="rounded=0;whiteSpace=wrap;html=1;" parent="1" vertex="1">
          <mxGeometry x="30" y="50" width="1110" height="480" as="geometry" />
        </mxCell>
        <mxCell id="_IiKv0jDs9eT7AmXAW_U-5" value="" style="rounded=1;whiteSpace=wrap;html=1;arcSize=6;" parent="1" vertex="1">
          <mxGeometry x="40" y="205" width="250" height="280" as="geometry" />
        </mxCell>
        <mxCell id="_IiKv0jDs9eT7AmXAW_U-3" value="Проаналізувати поточний стан вологості середовища" style="text;html=1;strokeColor=none;fillColor=none;align=center;verticalAlign=middle;whiteSpace=wrap;rounded=0;fontFamily=Verdana;fontSize=14;" parent="1" vertex="1">
          <mxGeometry x="60" y="225" width="210" height="80" as="geometry" />
        </mxCell>
        <mxCell id="_IiKv0jDs9eT7AmXAW_U-4" value="Запустити аналіз" style="rounded=1;whiteSpace=wrap;html=1;fontFamily=Verdana;fontSize=14;fillColor=#9FC5F9;strokeColor=#6c8ebf;fontColor=#ffffff;arcSize=35;" parent="1" vertex="1">
          <mxGeometry x="105" y="365" width="120" height="60" as="geometry" />
        </mxCell>
        <mxCell id="_IiKv0jDs9eT7AmXAW_U-6" value="" style="endArrow=none;html=1;rounded=0;exitX=0;exitY=1;exitDx=0;exitDy=0;entryX=1;entryY=1;entryDx=0;entryDy=0;strokeColor=#9FC5F9;strokeWidth=3;" parent="1" source="_IiKv0jDs9eT7AmXAW_U-3" target="_IiKv0jDs9eT7AmXAW_U-3" edge="1">
          <mxGeometry width="50" height="50" relative="1" as="geometry">
            <mxPoint x="470" y="465" as="sourcePoint" />
            <mxPoint x="520" y="415" as="targetPoint" />
          </mxGeometry>
        </mxCell>
        <mxCell id="_IiKv0jDs9eT7AmXAW_U-7" value="" style="rounded=1;whiteSpace=wrap;html=1;arcSize=8;" parent="1" vertex="1">
          <mxGeometry x="420" y="65" width="380" height="450" as="geometry" />
        </mxCell>
        <mxCell id="_IiKv0jDs9eT7AmXAW_U-8" value="" style="endArrow=none;html=1;rounded=0;exitX=-0.002;exitY=0.08;exitDx=0;exitDy=0;exitPerimeter=0;" parent="1" edge="1">
          <mxGeometry width="50" height="50" relative="1" as="geometry">
            <mxPoint x="419.99999999999994" y="110" as="sourcePoint" />
            <mxPoint x="800" y="110" as="targetPoint" />
          </mxGeometry>
        </mxCell>
        <mxCell id="_IiKv0jDs9eT7AmXAW_U-9" value="Зміна рівня вологості" style="text;html=1;strokeColor=none;fillColor=none;align=center;verticalAlign=middle;whiteSpace=wrap;rounded=0;fontFamily=Verdana;fontSize=14;" parent="1" vertex="1">
          <mxGeometry x="530" y="70" width="160" height="40" as="geometry" />
        </mxCell>
        <mxCell id="_IiKv0jDs9eT7AmXAW_U-11" value="Поточна вологість:" style="text;html=1;strokeColor=none;fillColor=none;align=center;verticalAlign=middle;whiteSpace=wrap;rounded=0;fontFamily=Verdana;fontSize=16;" parent="1" vertex="1">
          <mxGeometry x="460" y="145" width="180" height="40" as="geometry" />
        </mxCell>
        <mxCell id="_IiKv0jDs9eT7AmXAW_U-12" value="20%" style="text;html=1;strokeColor=none;fillColor=none;align=center;verticalAlign=middle;whiteSpace=wrap;rounded=0;fontFamily=Verdana;fontSize=30;" parent="1" vertex="1">
          <mxGeometry x="670" y="150" width="60" height="30" as="geometry" />
        </mxCell>
        <mxCell id="_IiKv0jDs9eT7AmXAW_U-13" value="" style="endArrow=none;html=1;rounded=0;entryX=0.998;entryY=0.341;entryDx=0;entryDy=0;entryPerimeter=0;" parent="1" target="_IiKv0jDs9eT7AmXAW_U-7" edge="1">
          <mxGeometry width="50" height="50" relative="1" as="geometry">
            <mxPoint x="419" y="220" as="sourcePoint" />
            <mxPoint x="790" y="220" as="targetPoint" />
          </mxGeometry>
        </mxCell>
        <mxCell id="_IiKv0jDs9eT7AmXAW_U-14" value="Зміна вологості:" style="text;html=1;strokeColor=none;fillColor=none;align=center;verticalAlign=middle;whiteSpace=wrap;rounded=0;fontFamily=Verdana;fontSize=16;" parent="1" vertex="1">
          <mxGeometry x="440" y="285" width="220" height="40" as="geometry" />
        </mxCell>
        <mxCell id="_IiKv0jDs9eT7AmXAW_U-15" value="42" style="text;html=1;strokeColor=none;fillColor=none;align=center;verticalAlign=middle;whiteSpace=wrap;rounded=0;fontFamily=Verdana;fontSize=30;" parent="1" vertex="1">
          <mxGeometry x="670" y="290" width="60" height="30" as="geometry" />
        </mxCell>
        <mxCell id="_IiKv0jDs9eT7AmXAW_U-16" value="" style="html=1;shadow=0;dashed=0;align=center;verticalAlign=middle;shape=mxgraph.arrows2.arrow;dy=0;dx=30;notch=30;rotation=-90;" parent="1" vertex="1">
          <mxGeometry x="676.25" y="233.12" width="47.5" height="60" as="geometry" />
        </mxCell>
        <mxCell id="_IiKv0jDs9eT7AmXAW_U-17" value="" style="html=1;shadow=0;dashed=0;align=center;verticalAlign=middle;shape=mxgraph.arrows2.arrow;dy=0;dx=30;notch=30;rotation=90;" parent="1" vertex="1">
          <mxGeometry x="676.25" y="320" width="47.5" height="60" as="geometry" />
        </mxCell>
        <mxCell id="_IiKv0jDs9eT7AmXAW_U-18" value="%" style="text;html=1;strokeColor=none;fillColor=none;align=center;verticalAlign=middle;whiteSpace=wrap;rounded=0;fontFamily=Verdana;fontSize=30;" parent="1" vertex="1">
          <mxGeometry x="740" y="290" width="45" height="30" as="geometry" />
        </mxCell>
        <mxCell id="_IiKv0jDs9eT7AmXAW_U-19" value="Змінити" style="rounded=1;whiteSpace=wrap;html=1;fontFamily=Verdana;fontSize=14;fillColor=#9FC5F9;strokeColor=#6c8ebf;fontColor=#ffffff;arcSize=35;" parent="1" vertex="1">
          <mxGeometry x="550" y="414" width="120" height="60" as="geometry" />
        </mxCell>
        <mxCell id="_IiKv0jDs9eT7AmXAW_U-21" style="edgeStyle=orthogonalEdgeStyle;rounded=1;orthogonalLoop=1;jettySize=auto;html=1;exitX=1;exitY=0.5;exitDx=0;exitDy=0;" parent="1" source="_IiKv0jDs9eT7AmXAW_U-4" edge="1">
          <mxGeometry relative="1" as="geometry">
            <mxPoint x="421" y="360" as="targetPoint" />
            <Array as="points">
              <mxPoint x="310" y="395" />
              <mxPoint x="310" y="360" />
              <mxPoint x="421" y="360" />
            </Array>
          </mxGeometry>
        </mxCell>
        <mxCell id="_IiKv0jDs9eT7AmXAW_U-23" value="" style="rounded=1;whiteSpace=wrap;html=1;arcSize=6;" parent="1" vertex="1">
          <mxGeometry x="880" y="200" width="250" height="250" as="geometry" />
        </mxCell>
        <mxCell id="_IiKv0jDs9eT7AmXAW_U-24" value="Показник вологості в приміщенні підвищено&amp;nbsp;" style="text;html=1;strokeColor=none;fillColor=none;align=center;verticalAlign=middle;whiteSpace=wrap;rounded=0;fontFamily=Verdana;fontSize=14;" parent="1" vertex="1">
          <mxGeometry x="900" y="230" width="210" height="80" as="geometry" />
        </mxCell>
        <mxCell id="_IiKv0jDs9eT7AmXAW_U-26" value="" style="endArrow=none;html=1;rounded=0;exitX=0;exitY=1;exitDx=0;exitDy=0;entryX=1;entryY=1;entryDx=0;entryDy=0;strokeColor=#9FC5F9;strokeWidth=3;" parent="1" edge="1">
          <mxGeometry width="50" height="50" relative="1" as="geometry">
            <mxPoint x="900" y="300" as="sourcePoint" />
            <mxPoint x="1110" y="300" as="targetPoint" />
          </mxGeometry>
        </mxCell>
        <mxCell id="_IiKv0jDs9eT7AmXAW_U-27" value="до 42%" style="text;html=1;strokeColor=none;fillColor=none;align=center;verticalAlign=middle;whiteSpace=wrap;rounded=0;fontFamily=Verdana;fontSize=30;" parent="1" vertex="1">
          <mxGeometry x="937.5" y="316.88" width="135" height="30" as="geometry" />
        </mxCell>
        <mxCell id="_IiKv0jDs9eT7AmXAW_U-28" style="edgeStyle=orthogonalEdgeStyle;rounded=1;orthogonalLoop=1;jettySize=auto;html=1;entryX=0;entryY=0.816;entryDx=0;entryDy=0;entryPerimeter=0;" parent="1" source="_IiKv0jDs9eT7AmXAW_U-19" target="_IiKv0jDs9eT7AmXAW_U-23" edge="1">
          <mxGeometry relative="1" as="geometry">
            <Array as="points">
              <mxPoint x="775" y="444" />
              <mxPoint x="775" y="404" />
            </Array>
          </mxGeometry>
        </mxCell>
        <mxCell id="LEQsoLQ3UnYQQ4MpbsTD-1" value="Завершити" style="rounded=1;whiteSpace=wrap;html=1;fontFamily=Verdana;fontSize=14;fillColor=#9FC5F9;strokeColor=#6c8ebf;fontColor=#ffffff;arcSize=35;" vertex="1" parent="1">
          <mxGeometry x="952.5" y="380" width="105" height="40" as="geometry" />
        </mxCell>
      </root>
    </mxGraphModel>
  </diagram>
</mxfile>
